# xmcd
#
# Track frame offsets:
#	182
#	42310
#	66805
#	92265
#	106825
#	127785
#	153525
#	189597
#	223625
#	253572
#	295087
#
# Disc length: 4307 seconds
#
# Revision: 0
# Processed by: cddbd v1.4PL0 Copyright (c) Steve Scherf et al.
# Submitted via: dBpowerAMP V4.0
#
DISCID=9010d10b
DTITLE=Eric Clapton - My Friend My Life
DYEAR=1992
DGENRE=Blues
TTITLE0=Cocaine
TTITLE1=Miss You
TTITLE2=Run
TTITLE3=Romeo And Juliet
TTITLE4=Layla
TTITLE5=Holy Mother
TTITLE6=Crossroads
TTITLE7=Sunshine Of Your Love
TTITLE8=Tearing Us Apart
TTITLE9=I Shot The Sheriff
TTITLE10=White Room
EXTD=
EXTT0=
EXTT1=
EXTT2=
EXTT3=
EXTT4=
EXTT5=
EXTT6=
EXTT7=
EXTT8=
EXTT9=
EXTT10=
PLAYORDER=
